# xmcd CD database file
#
# Track frame offsets:
#	150
#	23400
#	43875
#	67125
#
# Disc length: 1164 seconds
#
# Revision: 0
# Processed by: cddbd v1.5.1PL2 Copyright (c) Steve Scherf et al.
# Submitted via: CDex 1.51
#
DISCID=30048a04
DTITLE=椎名へきる・吉田古奈美・笠原弘子 - 【魔法騎士レイアース】モコナ音頭でぷぷぷのぷ
DYEAR=1995
DGENRE=Anime
TTITLE0=モコナ音頭でぷぷぷのぷ
TTITLE1=モコナ音頭でぷぷぷのぷ・盆おどり
TTITLE2=モコナ音頭でぷぷぷのぷ（オリジナルカラオケ）
TTITLE3=モコナ音頭でぷぷぷのぷ・盆おどり（オリジナルカラオケ）
EXTD=YEAR: 1995
EXTT0=
EXTT1=
EXTT2=
EXTT3=
PLAYORDER=
